<?xml version="1.0" encoding="UTF-8" standalone="no"?>
<!-- Created with Inkscape (http://www.inkscape.org/) -->
<svg
   xmlns:svg="http://www.w3.org/2000/svg"
   xmlns="http://www.w3.org/2000/svg"
   version="1.0"
   width="200"
   height="55.902546"
   id="svg2964">
  <defs
     id="defs2966">
    <clipPath
       id="clipPath2470">
      <path
         d="M 0.03,565.98 L 566.01,565.98 L 566.01,0 L 0.03,0 L 0.03,565.98 z"
         id="path2472" />
    </clipPath>
    <clipPath
       id="clipPath2464">
      <path
         d="M -2,568 L 567,568 L 567,-1 L -2,-1 L -2,568 z"
         id="path2466" />
    </clipPath>
    <clipPath
       id="clipPath2458">
      <path
         d="M 169.08,97.28 L 309.98,97.28 L 309.98,43.42 L 169.08,43.42 L 169.08,97.28 z"
         id="path2460" />
    </clipPath>
  </defs>
  <g
     transform="translate(-325.24696,-521.94674)"
     id="layer1">
    <path
       d="M 435.66003,575.56692 L 435.66003,568.61788 L 428.88308,568.61788 L 428.88308,555.69782 L 434.83731,551.84867 L 449.10059,568.61788 L 444.35106,568.61788 L 444.35106,575.56692 L 477.44664,575.56692 L 477.44664,568.61788 L 471.57427,568.61788 L 448.46676,543.04431 L 465.63054,531.95018 L 473.63947,531.95018 L 473.63947,525.00534 L 444.35106,525.00534 L 444.35106,531.95018 L 450.39133,531.95018 L 428.88308,545.95741 L 428.88308,531.95018 L 435.66003,531.95018 L 435.66003,525.00534 L 402.62111,525.00534 L 402.62111,531.95018 L 409.39386,531.95018 L 409.39386,568.61788 L 402.62111,568.61788 L 402.62111,575.56692 L 435.66003,575.56692"
       id="path3136"
       style="fill:#ed1c24;fill-opacity:1;fill-rule:nonzero;stroke:none" />
    <path
       d="M 520.24696,575.56692 L 520.24696,568.61788 L 512.97051,568.61788 L 512.97051,531.94388 L 520.24696,531.94388 L 520.24696,524.99484 L 484.3747,524.99484 L 484.3747,531.94388 L 491.65535,531.94388 L 491.65535,568.61788 L 484.3747,568.61788 L 484.3747,575.56692 L 520.24696,575.56692"
       id="path3138"
       style="fill:#ed1c24;fill-opacity:1;fill-rule:nonzero;stroke:none" />
    <path
       d="M 375.53432,564.2944 C 373.5216,568.65146 369.4017,569.52455 364.41501,569.52455 C 359.42413,569.52455 355.31053,568.65146 353.29571,564.2944 C 351.86853,561.20081 351.63137,554.1888 351.63137,550.29977 C 351.63137,546.40235 351.86853,539.39454 353.29571,536.30304 C 355.31053,531.93969 359.42413,531.07079 364.41501,531.07079 C 369.4017,531.07079 373.5216,531.93969 375.53432,536.30304 C 376.95519,539.39454 377.19446,546.40235 377.19446,550.29977 C 377.19446,554.1888 376.95519,561.20081 375.53432,564.2944 z M 389.66328,528.43473 C 383.70696,523.70829 370.22862,523.74187 364.41501,523.74187 C 358.59511,523.74187 345.12308,523.70829 339.16255,528.43473 C 332.7508,533.51376 330.24696,539.26231 330.24696,550.29977 C 330.24696,561.32463 332.7508,567.07948 339.16255,572.15851 C 345.12308,576.88495 358.59511,576.84928 364.41501,576.84928 C 370.22862,576.84928 383.70696,576.88495 389.66328,572.15851 C 396.07923,567.07948 398.58307,561.32463 398.58307,550.29977 C 398.58307,539.26231 396.07923,533.51376 389.66328,528.43473"
       id="path3140"
       style="fill:#ed1c24;fill-opacity:1;fill-rule:nonzero;stroke:none" />
  </g>
</svg>
